<svg width="36" height="36" viewBox="0 0 36 36" fill="none" xmlns="http://www.w3.org/2000/svg">
<path d="M20.115 18L26.565 11.565C26.8475 11.2826 27.0061 10.8995 27.0061 10.5C27.0061 10.1006 26.8475 9.71749 26.565 9.43503C26.2825 9.15258 25.8995 8.9939 25.5 8.9939C25.1005 8.9939 24.7175 9.15258 24.435 9.43503L18 15.885L11.565 9.43503C11.2825 9.15258 10.8995 8.9939 10.5 8.9939C10.1005 8.9939 9.71746 9.15258 9.435 9.43503C9.15254 9.71749 8.99386 10.1006 8.99386 10.5C8.99386 10.8995 9.15254 11.2826 9.435 11.565L15.885 18L9.435 24.435C9.29441 24.5745 9.18282 24.7404 9.10666 24.9232C9.03051 25.106 8.9913 25.302 8.9913 25.5C8.9913 25.698 9.03051 25.8941 9.10666 26.0769C9.18282 26.2597 9.29441 26.4256 9.435 26.565C9.57444 26.7056 9.74035 26.8172 9.92313 26.8934C10.1059 26.9695 10.302 27.0087 10.5 27.0087C10.698 27.0087 10.8941 26.9695 11.0769 26.8934C11.2597 26.8172 11.4256 26.7056 11.565 26.565L18 20.115L24.435 26.565C24.5744 26.7056 24.7403 26.8172 24.9231 26.8934C25.1059 26.9695 25.302 27.0087 25.5 27.0087C25.698 27.0087 25.8941 26.9695 26.0769 26.8934C26.2597 26.8172 26.4256 26.7056 26.565 26.565C26.7056 26.4256 26.8172 26.2597 26.8933 26.0769C26.9695 25.8941 27.0087 25.698 27.0087 25.5C27.0087 25.302 26.9695 25.106 26.8933 24.9232C26.8172 24.7404 26.7056 24.5745 26.565 24.435L20.115 18Z" fill="black"/>
</svg>
