<svg width="64" height="64" viewBox="0 0 64 64" fill="none" xmlns="http://www.w3.org/2000/svg">
<path d="M35.76 32.0002L47.2267 20.5602C47.7288 20.058 48.0109 19.377 48.0109 18.6668C48.0109 17.9567 47.7288 17.2756 47.2267 16.7735C46.7245 16.2714 46.0435 15.9893 45.3334 15.9893C44.6232 15.9893 43.9422 16.2714 43.44 16.7735L32 28.2402L20.56 16.7735C20.0579 16.2714 19.3768 15.9893 18.6667 15.9893C17.9565 15.9893 17.2755 16.2714 16.7734 16.7735C16.2712 17.2756 15.9891 17.9567 15.9891 18.6668C15.9891 19.377 16.2712 20.058 16.7734 20.5602L28.24 32.0002L16.7734 43.4402C16.5234 43.6881 16.325 43.983 16.1896 44.308C16.0543 44.6329 15.9846 44.9815 15.9846 45.3335C15.9846 45.6855 16.0543 46.0341 16.1896 46.359C16.325 46.684 16.5234 46.9789 16.7734 47.2268C17.0213 47.4768 17.3162 47.6752 17.6411 47.8105C17.9661 47.9459 18.3147 48.0156 18.6667 48.0156C19.0187 48.0156 19.3673 47.9459 19.6922 47.8105C20.0172 47.6752 20.3121 47.4768 20.56 47.2268L32 35.7602L43.44 47.2268C43.6879 47.4768 43.9829 47.6752 44.3078 47.8105C44.6328 47.9459 44.9813 48.0156 45.3334 48.0156C45.6854 48.0156 46.0339 47.9459 46.3589 47.8105C46.6839 47.6752 46.9788 47.4768 47.2267 47.2268C47.4766 46.9789 47.675 46.684 47.8104 46.359C47.9458 46.0341 48.0155 45.6855 48.0155 45.3335C48.0155 44.9815 47.9458 44.6329 47.8104 44.308C47.675 43.983 47.4766 43.6881 47.2267 43.4402L35.76 32.0002Z" fill="#081C15"/>
</svg>
