<svg width="30" height="30" viewBox="0 0 30 30" fill="none" xmlns="http://www.w3.org/2000/svg">
<path d="M18.1101 15.3216C18.1101 13.6988 16.7838 12.3783 15.1535 12.3783C13.5235 12.3783 12.1972 13.6988 12.1972 15.3216C12.1972 16.9448 13.5235 18.2651 15.1535 18.2651C16.7838 18.2651 18.1101 16.9448 18.1101 15.3216ZM22.5026 0H7.49744C3.36335 0 0 3.34872 0 7.46474V9.54462H11.0325C12.1966 8.71899 13.6184 8.23125 15.1535 8.23125C16.6887 8.23125 18.1107 8.71899 19.2748 9.54462H30V7.46474C30 3.34869 26.6366 0 22.5026 0ZM25.5389 7.09955C25.5389 7.55569 25.1642 7.92896 24.7059 7.92896H22.1319C21.6737 7.92896 21.2989 7.55569 21.2989 7.09955V4.53664C21.2989 4.08052 21.6737 3.70722 22.1319 3.70722H24.7059C25.1642 3.70722 25.5389 4.08046 25.5389 4.53664V7.09955ZM22.2753 15.3216C22.2753 19.2316 19.0803 22.4121 15.1535 22.4121C11.2266 22.4121 8.0319 19.2316 8.0319 15.3216C8.0319 14.2452 8.27542 13.2243 8.70848 12.3093H0V22.5265C0 26.6428 3.36335 29.9913 7.49744 29.9913H22.5026C26.6367 29.9913 30 26.6428 30 22.5265V12.3093H21.5987C22.0318 13.2243 22.2753 14.2452 22.2753 15.3216Z" fill="url(#paint0_linear_525_73)"/>
<defs>
<linearGradient id="paint0_linear_525_73" x1="0" y1="0" x2="30.5156" y2="0.534077" gradientUnits="userSpaceOnUse">
<stop stop-color="#52796F"/>
<stop offset="1" stop-color="#081C15"/>
</linearGradient>
</defs>
</svg>
