<svg width="46" height="47" viewBox="0 0 46 47" fill="none" xmlns="http://www.w3.org/2000/svg">
<path d="M27.7689 23.8159C27.7689 21.3421 25.7351 19.3291 23.2354 19.3291C20.736 19.3291 18.7024 21.3421 18.7024 23.8159C18.7024 26.2904 20.736 28.3031 23.2354 28.3031C25.7351 28.3031 27.7689 26.2904 27.7689 23.8159ZM34.5039 0.459229H11.4961C5.15713 0.459229 0 5.56413 0 11.8387V15.0094H16.9165C18.7015 13.7507 20.8815 13.0072 23.2354 13.0072C25.5893 13.0072 27.7697 13.7507 29.5548 15.0094H46V11.8387C46 5.56409 40.8428 0.459229 34.5039 0.459229ZM39.1597 11.282C39.1597 11.9774 38.5851 12.5464 37.8824 12.5464H33.9356C33.233 12.5464 32.6583 11.9774 32.6583 11.282V7.37503C32.6583 6.67971 33.2329 6.11064 33.9356 6.11064H37.8824C38.5851 6.11064 39.1597 6.67962 39.1597 7.37503V11.282ZM34.1555 23.8159C34.1555 29.7765 29.2565 34.6249 23.2354 34.6249C17.2141 34.6249 12.3156 29.7765 12.3156 23.8159C12.3156 22.175 12.689 20.6188 13.353 19.2239H0V34.7994C0 41.0744 5.15713 46.1789 11.4961 46.1789H34.504C40.8429 46.1789 46 41.0744 46 34.7994V19.2239H33.1181C33.7821 20.6188 34.1555 22.175 34.1555 23.8159Z" fill="#F5FFF4"/>
</svg>
