<svg width="33" height="28" viewBox="0 0 33 28" fill="none" xmlns="http://www.w3.org/2000/svg">
<path d="M29.7 0H3.3C1.485 0 0.0165 1.575 0.0165 3.5L0 24.5C0 26.425 1.485 28 3.3 28H29.7C31.515 28 33 26.425 33 24.5V3.5C33 1.575 31.515 0 29.7 0ZM29.04 7.4375L17.3745 15.1725C16.8465 15.5225 16.1535 15.5225 15.6255 15.1725L3.96 7.4375C3.79455 7.33899 3.64967 7.20591 3.53412 7.04629C3.41857 6.88668 3.33475 6.70386 3.28775 6.5089C3.24075 6.31394 3.23153 6.11089 3.26066 5.91204C3.28979 5.71319 3.35665 5.52267 3.45721 5.35203C3.55777 5.18138 3.68993 5.03415 3.8457 4.91924C4.00146 4.80434 4.17759 4.72414 4.36342 4.68352C4.54925 4.6429 4.74092 4.64269 4.92683 4.68291C5.11273 4.72313 5.28901 4.80293 5.445 4.9175L16.5 12.25L27.555 4.9175C27.711 4.80293 27.8873 4.72313 28.0732 4.68291C28.2591 4.64269 28.4508 4.6429 28.6366 4.68352C28.8224 4.72414 28.9985 4.80434 29.1543 4.91924C29.3101 5.03415 29.4422 5.18138 29.5428 5.35203C29.6433 5.52267 29.7102 5.71319 29.7393 5.91204C29.7685 6.11089 29.7593 6.31394 29.7123 6.5089C29.6652 6.70386 29.5814 6.88668 29.4659 7.04629C29.3503 7.20591 29.2055 7.33899 29.04 7.4375Z" fill="url(#paint0_linear_525_74)"/>
<defs>
<linearGradient id="paint0_linear_525_74" x1="0" y1="0" x2="33.5631" y2="0.692109" gradientUnits="userSpaceOnUse">
<stop stop-color="#52796F"/>
<stop offset="1" stop-color="#081C15"/>
</linearGradient>
</defs>
</svg>
