<svg width="120" height="120" viewBox="0 0 120 120" fill="none" xmlns="http://www.w3.org/2000/svg">
<path d="M90.25 106.45C89.7874 106.914 89.238 107.281 88.6331 107.532C88.0283 107.783 87.3798 107.912 86.725 107.912C86.0702 107.912 85.4217 107.783 84.8169 107.532C84.212 107.281 83.6626 106.914 83.2 106.45L72.6 95.85C72.1371 95.3871 71.7699 94.8375 71.5194 94.2327C71.2688 93.6279 71.1399 92.9797 71.1399 92.325C71.1399 91.6703 71.2688 91.0221 71.5194 90.4173C71.7699 89.8125 72.1371 89.2629 72.6 88.8C73.5349 87.8651 74.8029 87.3399 76.125 87.3399C76.7797 87.3399 77.4279 87.4688 78.0327 87.7194C78.6375 87.9699 79.1871 88.3371 79.65 88.8L86.7 95.85L104.4 78.15C104.863 77.6871 105.412 77.3199 106.017 77.0694C106.622 76.8188 107.27 76.6899 107.925 76.6899C108.58 76.6899 109.228 76.8188 109.833 77.0694C110.438 77.3199 110.987 77.6871 111.45 78.15C111.913 78.6129 112.28 79.1625 112.531 79.7673C112.781 80.3721 112.91 81.0203 112.91 81.675C112.91 82.3296 112.781 82.9779 112.531 83.5827C112.28 84.1875 111.913 84.7371 111.45 85.2L90.25 106.45V106.45ZM60.4 100H20C14.5 100 10 95.5 10 90V30C10 24.5 14.5 20 20 20H100C105.5 20 110 24.5 110 30V63.4C104.668 60.8632 98.7797 59.7179 92.8852 60.0707C86.9906 60.4236 81.2814 62.2631 76.2897 65.4179C71.298 68.5726 67.1863 72.9399 64.3379 78.1126C61.4895 83.2853 59.9972 89.0949 60 95C60 96.7 60.15 98.35 60.4 100ZM57.35 63.35C58.95 64.35 61.05 64.35 62.65 63.35L98 41.25C98.5014 40.9686 98.9404 40.5883 99.2906 40.1323C99.6407 39.6762 99.8947 39.1539 100.037 38.5969C100.18 38.0398 100.207 37.4597 100.119 36.8915C100.031 36.3234 99.8283 35.7791 99.5236 35.2915C99.2189 34.8039 98.8184 34.3833 98.3464 34.055C97.8744 33.7267 97.3406 33.4976 96.7775 33.3815C96.2144 33.2654 95.6336 33.2648 95.0702 33.3797C94.5069 33.4946 93.9727 33.7227 93.5 34.05L60 55L26.5 34.05C26.0273 33.7227 25.4931 33.4946 24.9298 33.3797C24.3664 33.2648 23.7856 33.2654 23.2225 33.3815C22.6594 33.4976 22.1256 33.7267 21.6536 34.055C21.1816 34.3833 20.7811 34.8039 20.4764 35.2915C20.1717 35.7791 19.9691 36.3234 19.8808 36.8915C19.7925 37.4597 19.8204 38.0398 19.9629 38.5969C20.1053 39.1539 20.3593 39.6762 20.7094 40.1323C21.0596 40.5883 21.4986 40.9686 22 41.25L57.35 63.35V63.35Z" fill="url(#paint0_linear_569_123)"/>
<defs>
<linearGradient id="paint0_linear_569_123" x1="10" y1="20" x2="114.667" y2="22.1437" gradientUnits="userSpaceOnUse">
<stop stop-color="#52796F"/>
<stop offset="1" stop-color="#081C15"/>
</linearGradient>
</defs>
</svg>
